<svg width="584" height="651" xmlns="http://www.w3.org/2000/svg" xmlns:xlink="http://www.w3.org/1999/xlink" xml:space="preserve" overflow="hidden"><g transform="translate(-444 -3590)"><path d="M830.043 3857.09 645.475 3857.43 615.305 3828.89 857.134 3828.45Z" stroke="#FFFFFF" stroke-width="27.5" stroke-miterlimit="8" fill="none" fill-rule="evenodd"/><path d="M458 4227 555.544 4227C554.731 4097.21 553.918 3967.42 553.105 3837.62L737.018 4010.9 918.895 3835.68 916.456 4227 1014 4227 1014 4186.12 967.667 4186.12 967.667 3652.67 1014 3652.67 1014 3604 914.018 3604 916.456 3783.07 738.544 3952.5 555.035 3783.08 550.667 3604 458 3604 458 3648.78 501.895 3648.78C502.707 3826.59 503.521 4004.41 504.333 4182.22L458 4182.22 458 4227Z" stroke="#FFFFFF" stroke-width="27.5" stroke-miterlimit="8" fill="none" fill-rule="evenodd"/></g></svg>