<svg width="557" height="836" xmlns="http://www.w3.org/2000/svg" xmlns:xlink="http://www.w3.org/1999/xlink" xml:space="preserve" overflow="hidden"><defs><clipPath id="clip0"><rect x="5850" y="3472" width="557" height="836"/></clipPath></defs><g clip-path="url(#clip0)" transform="translate(-5850 -3472)"><path d="M5850 3524.95C5850 3495.71 5873.71 3472 5902.95 3472L5908.05 3472C5937.29 3472 5961 3495.71 5961 3524.95L5961 4255.05C5961 4284.29 5937.29 4308 5908.05 4308L5902.95 4308C5873.71 4308 5850 4284.29 5850 4255.05Z" fill="#FFFFFF" fill-rule="evenodd"/><path d="M6296 3524.95C6296 3495.71 6319.71 3472 6348.95 3472L6354.05 3472C6383.29 3472 6407 3495.71 6407 3524.95L6407 4255.05C6407 4284.29 6383.29 4308 6354.05 4308L6348.95 4308C6319.71 4308 6296 4284.29 6296 4255.05Z" fill="#FFFFFF" fill-rule="evenodd"/><path d="M5868.38 3846.4C5846.78 3825.01 5846.61 3790.15 5868 3768.55L5871.82 3764.69C5893.22 3743.09 5928.07 3742.92 5949.68 3764.31L6168.23 3980.76C6189.83 4002.15 6190 4037.01 6168.6 4058.61L6164.78 4062.47C6143.39 4084.07 6108.53 4084.24 6086.93 4062.85Z" fill="#FFFFFF" fill-rule="evenodd"/><path d="M6347.73 3741C6378.25 3741 6403 3765.75 6403 3796.27L6403 3801.73C6403 3832.25 6378.25 3857 6347.73 3857L5905.27 3857C5874.75 3857 5850 3832.25 5850 3801.73L5850 3796.27C5850 3765.75 5874.75 3741 5905.27 3741Z" fill="#FFFFFF" fill-rule="evenodd"/><path d="M6307.65 3764.38C6329.26 3743 6364.12 3743.18 6385.5 3764.79L6389.32 3768.65C6410.71 3790.26 6410.53 3825.12 6388.92 3846.5L6170.29 4062.86C6148.67 4084.25 6113.82 4084.07 6092.43 4062.46L6088.61 4058.6C6067.23 4036.99 6067.41 4002.13 6089.02 3980.74Z" fill="#FFFFFF" fill-rule="evenodd"/></g></svg>