<svg width="545" height="627" xmlns="http://www.w3.org/2000/svg" xmlns:xlink="http://www.w3.org/1999/xlink" xml:space="preserve" overflow="hidden"><defs><clipPath id="clip0"><rect x="7495" y="3577" width="545" height="627"/></clipPath></defs><g clip-path="url(#clip0)" transform="translate(-7495 -3577)"><path d="M7838.91 3577.25C7823.14 3579.25 7848.39 3634.03 7871.72 3689.95 7956.73 3879.35 7898.36 4039.63 7871.72 4090.3 7845.09 4140.98 7824.55 4186.22 7838.91 4203 8008.61 4202.55 8039.63 3976.08 8031.94 3867.48 8018.47 3745.47 7925.5 3569.43 7838.91 3577.25Z" fill="#FFFFFF" fill-rule="evenodd"/><path d="M193.115 625.748C208.806 623.746 183.68 568.968 160.468 513.049 75.8872 323.654 133.967 163.373 160.468 112.699 186.968 62.025 207.401 16.7769 193.115 0 24.2653 0.447077-6.60149 226.917 1.05983 335.524 14.4562 457.527 106.964 633.574 193.115 625.748Z" fill="#FFFFFF" fill-rule="evenodd" transform="matrix(1 -1.22465e-16 -1.22465e-16 -1 7503 4203)"/><path d="M7688.8 4062.2C7741.46 4110.96 7720.15 4199.23 7701.65 4202.42 7546.78 4227.51 7414.95 3948.57 7553.15 3709 7516.77 3809.23 7564.85 3900.78 7576.22 3927.45 7587.6 3954.11 7629.35 4007.93 7688.8 4062.2Z" fill="#FFFFFF" fill-rule="evenodd"/><path d="M192.948 353.202C245.37 401.957 224.157 490.229 205.734 493.423 51.5557 518.508-79.7019 239.572 57.8986 0 21.6776 100.227 69.5396 191.784 80.866 218.447 92.1925 245.11 133.755 298.934 192.948 353.202Z" fill="#FFFFFF" fill-rule="evenodd" transform="matrix(-1 0 0 1 8040 3709)"/><path d="M7950 3883.47C7948.95 3909.29 7823.93 4062.01 7764.72 4058.96 7705.52 4055.91 7588.2 3922.51 7587 3884.5 7595.57 3861.59 7639.53 3861.98 7684.07 3862.83 7697.75 3889.7 7742.18 3958.82 7766.29 3959.27 7790.43 3959.72 7832.13 3907.01 7852.06 3862.83 7928.66 3859.46 7946.26 3866.35 7950 3883.47Z" fill="#FFFFFF" fill-rule="evenodd"/><path d="M7629.05 3770 7907.62 3770C7932.15 3769.64 7958.9 3877.22 7947.14 3891.35 7942.46 3896.96 7951.71 3864.28 7876.53 3864.65L7862.82 3864.56 7659.47 3864.65C7584.29 3864.28 7593.54 3896.96 7588.86 3891.35 7577.1 3877.22 7603.85 3769.64 7628.38 3770L7629.05 3770Z" fill="#FFFFFF" fill-rule="evenodd"/></g></svg>